# xmcd CD database file
#
# Track frame offsets:
#	150
#	63498
#	107886
#	131581
#	183111
#	224426
#	269000
#	314509
#
# Disc length: 4341 seconds
#
# Revision: 0
# Processed by: cddbd v1.5.2PL0 Copyright (c) Steve Scherf et al.
# Submitted via: CDex 1.70beta2
#
DISCID=7d10f308
DTITLE=De Volharding - Trajecten
DYEAR=1900
DGENRE=Jazz
TTITLE0=On Jimmy Yancey
TTITLE1=Dressoir
TTITLE2=Balada do Amor Militante
TTITLE3=Trajecten
TTITLE4=Järn
TTITLE5=Lacune
TTITLE6=Woeha
TTITLE7=Dat gebeurt in Vietnam
EXTD=
EXTT0=
EXTT1=
EXTT2=
EXTT3=
EXTT4=
EXTT5=
EXTT6=
EXTT7=
PLAYORDER=
